<?xml version="1.0" encoding="UTF-8"?>
<svg id="Layer_1" data-name="Layer 1" xmlns="http://www.w3.org/2000/svg" viewBox="0 0 307.24 198.03">
  <defs>
    <style>
      .cls-1 {
        font-family: FbAlfa-Bold, FbAlfa;
        font-size: 20px;
        font-weight: 700;
      }

      .cls-1, .cls-2, .cls-3 {
        fill: #231f20;
      }

      .cls-4 {
        fill: #ed1c24;
      }

      .cls-4, .cls-3 {
        fill-rule: evenodd;
      }
    </style>
  </defs>
  <g>
    <path class="cls-3" d="M155.08,37.25c-6.61,5.17-9.81-.02-11.16,10.99-.88,7.16,1.44,12.01-10.15,21.06,5.63-4.39,25.93-.6,19.73,3.63,3.51-1.15,3.82-4.73,4.16-7.47,1.34-10.92-12.31-26.04-1.67-24.73l-.91-3.48Z"/>
    <path class="cls-4" d="M154.81,35.87s5.04-6.21,14.84-10.6c10-4.49,18.09-1.77,18.09-1.77l23.09,40.45s-7.68-3.97-25.44,2.28c-14.81,5.21-21.34,14.59-21.34,14.59l-9.24-44.95Z"/>
  </g>
  <g>
    <g>
      <path class="cls-3" d="M119.56,115.44c-10.41,0-13.94-5.04-13.94-7.13v-17.04c0-1.93.53-4.21,2.01-5.78h-19.98c1.49,1.57,2.01,3.85,2.01,5.78v20.86c0,9.9,13.27,17.5,29.75,17.5s29.16-7.6,29.16-17.5v-20.86c0-1.93.53-4.21,2.02-5.78h-19.98c1.49,1.57,2.02,3.85,2.02,5.78v17.26c0,2.32-3,6.91-13.07,6.91Z"/>
      <path class="cls-3" d="M127.33,110.73l-.07-19.47c0-1.93.47-4.21,1.96-5.78h-19.76c1.49,1.58,2.02,4.07,2.02,6v19.14l15.86.11Z"/>
    </g>
    <path class="cls-2" d="M186.67,123.98c0-.89-.63-2.19-.63-2.19l-8.62-10.8c-1.53-1.92-2.76-1.94-3.6.64-1.38,4.2,1.28,12.17,1.84,13.01.71,1.06,1.07,1.73,2.58,2.13h-25.63c1.63-1.01,4.44-3.51,4.76-6.8v-5.75c0-7.45,4.85-11.95,10.44-15.13-2.05-2.17-8.4-9.83-8.4-9.83-1.66-1.87-2.31-2.48-5.35-3.79h24.05c-2.73.99-.1,4.07-.1,4.07l8.6,10.63c4.04,4.99,5.5-6.03,2.43-11.61-1.39-2.51-3.76-3.09-3.76-3.09h25.77c-1.63,1.01-2.77,1.11-3.9,3.07-1.25,2.15-.72,3.61-.99,6.54,0,2.61-.63,4.75-1.64,6.52-.09.17-.18.34-.28.5-.29.48-.64.93-1.02,1.37-2.01,2.39-4.77,3.94-7.34,5.04l-1.35.18,11.45,13.89c1.27,1.68,3.43,3.2,5.06,4.2h-25.55c.54-.59,1.19-1.38,1.19-2.79Z"/>
    <g>
      <path class="cls-3" d="M53.81,85.49c-3.95,0-5.32-.22-7.78-.82-1.19-.29-3.25-2.22-4.3-2.92v17.83c1.32-2.69,2.2-2.38,7.87-2.38l9.15.03c7.17,0,8.6,5.7,8.6,7.8v15.99c0,1.93-.53,4.16-2.02,5.74h19.98c-1.49-1.58-2.01-3.81-2.01-5.74v-18.26c0-9.9.02-17.28-12.22-17.28h-17.27Z"/>
      <path class="cls-3" d="M41.9,105.92l.02,15.06c0,1.93-.46,4.21-1.95,5.79h19.98c-1.49-1.58-2.01-3.86-2.01-5.79v-15.06h-16.03Z"/>
    </g>
    <path class="cls-2" d="M242.9,91.95h-11.01c0,3.76-.19,4.8,5.15,4.8v4.88c0,2.51,2.41,5.37,2.41,5.37,0,0-4.62,1.43-7.1,1.43-9.32,0-17.26-4.33-17.26-13.4v-21.58c3.61,3.71,6.51,3.71,9.94,3.71,4.06,0,6.08-.2,13.72-.2,24.75,0,30.48,12.12,30.48,25.36,0,15.79-6.94,24-29.3,23.99h-11.96c-2.33,0-1.3-.03-4.03-.03-1.05,0-7.4.59-8.57,3.13l-.02-21.8c3.06,2.43,8.19,5.14,12.62,5.14,10.9,0,22.65.73,22.65-10.73,0-3.53-2.43-10.06-7.72-10.06Z"/>
  </g>
  <text class="cls-1" transform="translate(39.44 150.34)"><tspan x="0" y="0">מתחם לאוכל מוכן מבית האחוזה</tspan></text>
</svg>